Coordinates
version=1
nRows=12
nColumns=24
inDegrees=yes

Units are S.I. units (second, meters, Newtons, ...)
Angles are in degrees.

endheader
time	pelvis_tilt	pelvis_list	pelvis_rotation	pelvis_tx	pelvis_ty	pelvis_tz	hip_flexion_r	hip_adduction_r	hip_rotation_r	knee_angle_r	ankle_angle_r	subtalar_angle_r	mtp_angle_r	hip_flexion_l	hip_adduction_l	hip_rotation_l	knee_angle_l	ankle_angle_l	subtalar_angle_l	mtp_angle_l	lumbar_extension	lumbar_bending	lumbar_rotation
      1.32533333	     -1.18293772	     -2.55957803	     -5.87114463	      0.49911279	      1.09276432	      0.26720701	     17.42413926	      1.19397871	     -3.44805139	    -60.38886193	      0.53083167	     -5.12739803	      6.70505149	      5.72965018	     -1.46708023	     -0.03672738	    -11.46567185	      7.55505313	      0.94380201	      2.58650336	    -14.19928135	      1.10499119	     -0.63770772
      1.32950000	     -1.15727537	     -2.67577268	     -5.76570618	      0.50418775	      1.09341902	      0.26683288	     17.78025885	      1.30910818	     -3.67543751	    -59.67541285	      0.84671258	     -4.95296010	      6.76391579	      5.17678912	     -1.53943906	      0.06236026	    -10.98412978	      7.54712191	      0.93047386	      2.60878079	    -14.20195755	      1.31890050	     -0.79767349
      1.33366667	     -1.15638326	     -2.78432810	     -5.66121405	      0.50928009	      1.09395969	      0.26647484	     18.15463673	      1.41733835	     -3.90072083	    -58.93738196	      1.15413435	     -4.78609799	      6.81585432	      4.66071317	     -1.60944392	      0.14298990	    -10.52557930	      7.55439617	      0.92581746	      2.62961033	    -14.16093462	      1.51502956	     -0.93132461
      1.33783333	     -1.12775820	     -2.90159927	     -5.55800948	      0.51434732	      1.09451787	      0.26612762	     18.48584969	      1.53390553	     -4.12065566	    -58.15925159	      1.43838486	     -4.65625871	      6.86393936	      4.11544847	     -1.68892583	      0.22100840	    -10.06722302	      7.56103371	      0.92142897	      2.65001184	    -14.15740355	      1.72080973	     -1.06550876
      1.34200000	     -1.12953183	     -3.00288808	     -5.46279400	      0.51941363	      1.09495020	      0.26580908	     18.84713542	      1.63805998	     -4.32756061	    -57.36585554	      1.71475880	     -4.53574727	      6.90574545	      3.60993773	     -1.75664712	      0.29052037	     -9.62145909	      7.57558955	      0.91832467	      2.66888827	    -14.11514115	      1.90834643	     -1.18820927
      1.34616667	     -1.12582497	     -3.11427516	     -5.36763138	      0.52447745	      1.09535599	      0.26550235	     19.18616682	      1.75455865	     -4.53102157	    -56.53193844	      1.97605340	     -4.45284809	      6.93097976	      3.10821315	     -1.83907464	      0.32752763	     -9.19709608	      7.58877194	      0.94356625	      2.68031794	    -14.07089132	      2.09747976	     -1.26860815
      1.35033333	     -1.14428636	     -3.20404825	     -5.29356150	      0.52952874	      1.09564413	      0.26525256	     19.55362950	      1.85717598	     -4.70352374	    -55.69660338	      2.22866332	     -4.40493967	      6.94683185	      2.62611769	     -1.90407451	      0.35907168	     -8.76327879	      7.61513415	      0.99002319	      2.68801944	    -14.02372868	      2.27513114	     -1.33658352
      1.35450000	     -1.11138520	     -3.29948006	     -5.19716177	      0.53455062	      1.09598486	      0.26496820	     19.84505935	      1.95369900	     -4.89119895	    -54.81417568	      2.45782047	     -4.35216824	      6.98159734	      2.08592195	     -1.96510545	      0.47585177	     -8.31780343	      7.62622984	      0.89861680	      2.71048440	    -14.02400916	      2.45025115	     -1.55440351
      1.35866667	     -1.16032637	     -3.37896799	     -5.13470369	      0.53958927	      1.09610130	      0.26476745	     20.22893380	      2.05384044	     -5.03980940	    -53.93243705	      2.68159723	     -4.33791441	      6.99082026	      1.65151317	     -2.02652727	      0.48428142	     -7.91449973	      7.67774352	      0.96013740	      2.71702079	    -13.92948434	      2.60280477	     -1.57844864
      1.36283333	     -1.17481304	     -3.47768480	     -5.04911015	      0.54461170	      1.09626298	      0.26453554	     20.54806765	      2.16641734	     -5.20146120	    -52.99030234	      2.87151352	     -4.33043794	      7.00063380	      1.19031735	     -2.10585200	      0.52684082	     -7.53212156	      7.72527475	      0.96413687	      2.72683779	    -13.86834183	      2.77512263	     -1.67352419
      1.36700000	     -1.14322483	     -3.55395493	     -4.98027013	      0.54957608	      1.09642497	      0.26434350	     20.82217802	      2.25731759	     -5.33350196	    -52.04679861	      3.04246880	     -4.36800925	      7.01040814	      0.66357836	     -2.15580502	      0.60029856	     -7.10946776	      7.77540754	      0.93582454	      2.74242107	    -13.88371256	      2.92446810	     -1.82003666
      1.37116667	     -1.20187580	     -3.62291631	     -4.92069161	      0.55458549	      1.09637617	      0.26419925	     21.18258605	      2.35434016	     -5.44924096	    -51.08300591	      3.23281356	     -4.41309083	      7.01397263	      0.25703617	     -2.21292304	      0.61365444	     -6.74005698	      7.82114324	      0.96047078	      2.75109081	    -13.77366184	      3.05702326	     -1.87036474
